<?xml version="1.0" encoding="UTF-8"?>
<svg xmlns="http://www.w3.org/2000/svg" width="23" height="30" viewBox="0 0 23 30" fill="none">
  <path d="M11.1522 16.0213C13.3671 16.0213 14.3941 17.7027 14.6107 20.0896C14.6618 20.661 14.6083 21.4935 14.5352 22.4582C14.2863 25.6626 13.9999 29.6001 16.1337 29.6001C17.9379 29.6001 18.8651 26.1379 19.3999 22.1919C19.9165 18.2854 19.3694 16.3415 19.638 14.6071C20.1508 11.3207 23.0201 8.37412 22.1337 4.18349C21.6429 1.85896 20.3632 0.765367 19.0947 0.305992C16.174 -0.757133 14.2877 1.2913 11.1513 1.2913C8.01491 1.2913 6.12912 -0.757133 3.20694 0.305992C1.93991 0.765367 0.660219 1.85896 0.1685 4.18349C-0.716969 8.37365 2.15084 11.3207 2.66506 14.6071C2.93366 16.3415 2.38709 18.2854 2.90366 22.1919C3.4385 26.1383 4.36569 29.6001 6.16991 29.6001C8.30225 29.6001 8.01772 25.6626 7.76834 22.4582C7.69522 21.494 7.64131 20.661 7.69241 20.0896C7.90803 17.7027 8.94959 16.0213 11.1513 16.0213H11.1522Z" fill="#001A78"></path>
</svg>
