<?xml version="1.0" encoding="UTF-8"?>
<svg xmlns="http://www.w3.org/2000/svg" width="60" height="60" viewBox="0 0 60 60" fill="none">
  <mask id="mask0_43_209" style="mask-type:alpha" maskUnits="userSpaceOnUse" x="7" y="26" width="46" height="30">
    <path d="M7.5 28.9877C7.5 27.4757 8.72571 26.25 10.2377 26.25H10.415C12.2933 26.25 13.9771 27.4084 14.6486 29.1625C15.9222 32.4892 19.4572 34.3639 22.9255 33.5518L27.8978 32.3877C29.2808 32.0639 30.7197 32.0618 32.1036 32.3815L37.3462 33.5926C40.7401 34.3767 44.1776 32.4685 45.3071 29.1733C45.9065 27.4246 47.5508 26.25 49.3994 26.25H49.6461C51.1905 26.25 52.4126 27.5566 52.3095 29.0975L51.2926 44.3009C50.871 50.6033 45.6359 55.5 39.3193 55.5H20.5954C14.314 55.5 9.09548 50.656 8.62859 44.3919L7.5 29.25V28.9877Z" fill="url(#paint0_linear_43_209)"></path>
  </mask>
  <g mask="url(#mask0_43_209)">
    <rect x="7.5" y="26.25" width="45" height="29.25" fill="#F7A6A5"></rect>
    <rect opacity="0.6" x="21" y="32.5798" width="17.25" height="13.9202" fill="url(#paint1_linear_43_209)"></rect>
    <rect opacity="0.6" x="12.6348" y="22.1129" width="23.8846" height="7.81353" transform="rotate(56.2075 12.6348 22.1129)" fill="url(#paint2_linear_43_209)"></rect>
    <rect opacity="0.6" width="23.8846" height="6.14519" transform="matrix(-0.534394 0.845236 0.845236 0.534394 47.9983 23.3411)" fill="url(#paint3_linear_43_209)"></rect>
  </g>
  <path fill-rule="evenodd" clip-rule="evenodd" d="M35.2714 6.08817C32.2095 7.39192 27.7904 7.39191 24.7285 6.08816C22.2407 5.02888 19.458 4.93065 16.8904 6.04063C11.472 8.38303 9.0417 15.2283 11.4 21.4033C11.4006 21.4047 11.4005 21.4062 11.4 21.4075L12.1359 22.998C14.6237 28.3742 16.4989 34.0099 17.7265 39.8002L18.8944 45.3084C19.2985 46.8918 20.7267 48 22.3632 48C24.1209 48 25.6186 46.7259 25.8976 44.9932L27.544 34.7696C27.7379 33.5656 28.7786 32.6802 30 32.6802C31.2214 32.6802 32.2622 33.5656 32.4561 34.7696L34.1024 44.9931C34.3815 46.7259 35.8791 48 37.6368 48C39.2733 48 40.7015 46.8918 41.1056 45.3084L42.2735 39.8002C43.5011 34.0099 45.3763 28.3742 47.8641 22.998L48.6 21.4075C48.5995 21.4062 48.5994 21.4047 48.6 21.4033C50.9583 15.2283 48.528 8.38303 43.1096 6.04063C40.5419 4.93064 37.7592 5.02887 35.2714 6.08817Z" fill="url(#paint4_linear_43_209)"></path>
  <defs>
    <linearGradient id="paint0_linear_43_209" x1="30" y1="26.25" x2="30" y2="55.5" gradientUnits="userSpaceOnUse">
      <stop stop-color="#F7A6A5"></stop>
      <stop offset="1" stop-color="#F7A6A5"></stop>
    </linearGradient>
    <linearGradient id="paint1_linear_43_209" x1="29.625" y1="32.5798" x2="29.625" y2="46.5001" gradientUnits="userSpaceOnUse">
      <stop stop-color="#E78180"></stop>
      <stop offset="1" stop-color="#E78180" stop-opacity="0"></stop>
    </linearGradient>
    <linearGradient id="paint2_linear_43_209" x1="24.5771" y1="22.1129" x2="24.5771" y2="29.9264" gradientUnits="userSpaceOnUse">
      <stop stop-color="#E78180"></stop>
      <stop offset="1" stop-color="#E78180" stop-opacity="0"></stop>
    </linearGradient>
    <linearGradient id="paint3_linear_43_209" x1="11.9423" y1="0" x2="11.9423" y2="6.14519" gradientUnits="userSpaceOnUse">
      <stop stop-color="#E78180"></stop>
      <stop offset="1" stop-color="#E78180" stop-opacity="0"></stop>
    </linearGradient>
    <linearGradient id="paint4_linear_43_209" x1="15.6618" y1="5.25" x2="38.9579" y2="46.4137" gradientUnits="userSpaceOnUse">
      <stop stop-color="#F0F6F9"></stop>
      <stop offset="1" stop-color="#CDDFF2"></stop>
    </linearGradient>
  </defs>
</svg>
